<?xml version="1.0" encoding="utf-8"?>
<!-- Generator: Adobe Illustrator 26.0.2, SVG Export Plug-In . SVG Version: 6.00 Build 0)  -->
<svg version="1.1" id="Layer_1" xmlns="http://www.w3.org/2000/svg" xmlns:xlink="http://www.w3.org/1999/xlink" x="0px" y="0px"
	 viewBox="0 0 170.5 52.9" style="enable-background:new 0 0 170.5 52.9;" xml:space="preserve">
<style type="text/css">
	.st0{clip-path:url(#SVGID_00000088129156654195104440000005568474308995579797_);}
	.st1{clip-path:url(#SVGID_00000181771796129965308710000017435530227492188857_);fill:#001EFF;}
	.st2{clip-path:url(#SVGID_00000028304941539444262560000003551778133465903250_);}
	.st3{clip-path:url(#SVGID_00000166666233379303897180000016334712846429458331_);}
	.st4{fill:none;}
	.st5{display:none;}
</style>
<g>
	<g>
		<g>
			<g>
				<defs>
					<path id="SVGID_1_" d="M145.9,15.5L165,34.9h5.5l-15.3-15.5h12.6v-3.9C167.7,15.5,145.9,15.5,145.9,15.5z M133.3,0v34.9h3.8
						v-31h30.6V0H133.3z"/>
				</defs>
				<clipPath id="SVGID_00000164478424081166673580000016747328013522375822_">
					<use xlink:href="#SVGID_1_"  style="overflow:visible;"/>
				</clipPath>
				<g style="clip-path:url(#SVGID_00000164478424081166673580000016747328013522375822_);">
					<g>
						<defs>
							<rect id="SVGID_00000064355444584858156330000003487498978918602684_" width="180" height="62.5"/>
						</defs>
						<clipPath id="SVGID_00000031930184320973954990000005197017404059249291_">
							<use xlink:href="#SVGID_00000064355444584858156330000003487498978918602684_"  style="overflow:visible;"/>
						</clipPath>
						
							<rect x="132.4" y="-0.9" style="clip-path:url(#SVGID_00000031930184320973954990000005197017404059249291_);fill:#001EFF;" width="39" height="36.7"/>
					</g>
				</g>
			</g>
		</g>
		<g>
			<g>
				<defs>
					<path id="SVGID_00000116199958564248050070000015969621983641789885_" d="M9.4,25.9h3.4L9,18.2l0.1,0c2-0.6,3.1-2.2,3.1-4.4
						c0-3.2-2-5-5.4-5H0v17.2h3.1v-7.1h3L9.4,25.9z M3.1,16.3v-5.1h3.1c1.9,0,2.9,0.9,2.9,2.6c0,1.8-1,2.6-3.5,2.6H3.1z M25.3,18.2
						v-2.6h-5.9v-4.4h8.1V8.7H16.3v17.2h11.5v-2.6h-8.4v-5.1H25.3z M40.8,15.7h-5.8v-4.4h7.7V8.7H32v17.2h3.1v-7.7h5.8V15.7z
						 M46.4,8.7v17.2h3.1v-1V8.7H46.4z M73.1,8.7v17.2h3.1v-1.3V8.7H73.1z M92,8.7H79.9v2.6h4.5v14.6h3.1V11.3H92L92,8.7L92,8.7z
						 M95.8,8.7v17.2h3.1v-1.3V8.7H95.8z M65,8.7v12.2h0L58,8.7h-3.3v17.2h2.9V13.2h0l3.8,6.7l3.4,6h3V8.7H65z M113.4,8.7l-4,13.9h0
						l-4-13.9h-3l5.3,17.2h3.5l5.3-17.2H113.4z"/>
				</defs>
				<clipPath id="SVGID_00000140697507036644042970000014082036365583359161_">
					<use xlink:href="#SVGID_00000116199958564248050070000015969621983641789885_"  style="overflow:visible;"/>
				</clipPath>
				<g style="clip-path:url(#SVGID_00000140697507036644042970000014082036365583359161_);">
					<g>
						<defs>
							<rect id="SVGID_00000040551475403234435570000012231341867947596936_" x="0" y="8.7" width="123.2" height="17.2"/>
						</defs>
						<clipPath id="SVGID_00000085966744632832011260000014903312264072126398_">
							<use xlink:href="#SVGID_00000040551475403234435570000012231341867947596936_"  style="overflow:visible;"/>
						</clipPath>
						
							<rect x="-0.9" y="7.8" style="clip-path:url(#SVGID_00000085966744632832011260000014903312264072126398_);" width="125.1" height="19"/>
					</g>
				</g>
			</g>
		</g>
	</g>
	<g>
		<path d="M7.3,50.7h-5l-0.9,2.2H0.1L4.1,43h1.5l4,9.8H8.2L7.3,50.7z M2.7,49.6H7l-2.1-5.5L2.7,49.6z"/>
		<path d="M15.6,48.2c0-1.2-0.6-1.6-1.6-1.6c-0.9,0-1.7,0.5-2.1,1.1v5.2h-1.1v-7.1h1.1v1c0.5-0.6,1.5-1.2,2.5-1.2
			c1.5,0,2.3,0.8,2.3,2.3v5h-1.1L15.6,48.2L15.6,48.2z"/>
		<path d="M22.7,43h1.2v8.7h4.6v1.1h-5.8C22.7,52.8,22.7,43,22.7,43z"/>
		<path d="M30.3,50.6c0.6,0.7,1.7,1.4,3.1,1.4c1.7,0,2.3-0.9,2.3-1.7c0-1.2-1.2-1.5-2.5-1.9c-1.6-0.4-3.3-0.9-3.3-2.8
			c0-1.6,1.4-2.7,3.4-2.7c1.5,0,2.7,0.5,3.5,1.4L36,45.2c-0.7-0.8-1.8-1.2-2.8-1.2c-1.2,0-2,0.6-2,1.6c0,1,1.1,1.3,2.4,1.6
			c1.6,0.4,3.4,0.9,3.4,3c0,1.4-1,2.9-3.6,2.9c-1.7,0-3-0.7-3.8-1.6L30.3,50.6z"/>
		<path d="M38.8,43h6.4v1.1H40v3.2h5.1v1.1H40v3.4h5.2v1.1h-6.4C38.8,52.8,38.8,43,38.8,43z"/>
		<path d="M51.8,42.9c1.7,0,2.9,0.8,3.8,1.8l-1,0.6C54.1,44.5,53,44,51.8,44c-2.1,0-3.8,1.6-3.8,4c0,2.3,1.6,4,3.8,4
			c1.2,0,2.1-0.6,2.6-1.1v-2h-3.4v-1.1h4.6v3.5c-0.9,1-2.3,1.7-3.8,1.7c-2.8,0-5-2-5-5.1S49,42.9,51.8,42.9z"/>
		<path d="M61.5,43h4.4c1.7,0,2.7,1,2.7,2.5c0,1.2-0.8,2.1-1.7,2.3c1,0.2,1.9,1.2,1.9,2.4c0,1.6-1,2.6-2.8,2.6h-4.5V43z M65.6,47.3
			c1.1,0,1.7-0.7,1.7-1.6c0-0.9-0.6-1.6-1.7-1.6h-2.9v3.2H65.6z M65.7,51.8c1.1,0,1.8-0.6,1.8-1.7c0-0.9-0.6-1.7-1.8-1.7h-3v3.4
			H65.7z"/>
		<path d="M75.4,51.9C74.9,52.5,74,53,72.9,53c-1.5,0-2.3-0.7-2.3-2.3v-5h1.1v4.7c0,1.2,0.6,1.6,1.6,1.6c0.9,0,1.7-0.5,2.1-1.1v-5.2
			h1.1v7.1h-1.1L75.4,51.9L75.4,51.9z"/>
		<path d="M78.7,51.1c0.5,0.5,1.4,1,2.3,1c1.1,0,1.7-0.5,1.7-1.2c0-0.8-0.9-1-1.8-1.3c-1.2-0.3-2.6-0.6-2.6-2.1c0-1.1,1-2,2.6-2
			c1.2,0,2.1,0.5,2.6,1l-0.5,0.8c-0.4-0.5-1.2-0.9-2.1-0.9c-1,0-1.6,0.4-1.6,1.1c0,0.7,0.8,0.9,1.7,1.1c1.2,0.3,2.7,0.6,2.7,2.2
			c0,1.2-1,2.1-2.8,2.1c-1.2,0-2.1-0.3-2.9-1.1L78.7,51.1z"/>
		<path d="M85.4,43.8c0-0.4,0.3-0.7,0.7-0.7c0.4,0,0.8,0.3,0.8,0.7s-0.3,0.8-0.8,0.8C85.7,44.6,85.4,44.2,85.4,43.8z M85.6,45.8h1.1
			v7.1h-1.1V45.8z"/>
		<path d="M93.7,48.2c0-1.2-0.6-1.6-1.6-1.6c-0.9,0-1.7,0.5-2.1,1.1v5.2h-1.1v-7.1H90v1c0.5-0.6,1.5-1.2,2.5-1.2
			c1.5,0,2.3,0.8,2.3,2.3v5h-1.1L93.7,48.2L93.7,48.2z"/>
		<path d="M100.1,45.6c2.1,0,3.4,1.7,3.4,3.8v0.3h-5.8c0.1,1.3,1,2.5,2.6,2.5c0.8,0,1.6-0.3,2.2-0.9l0.5,0.7
			c-0.7,0.7-1.7,1.1-2.8,1.1c-2.1,0-3.6-1.5-3.6-3.7C96.6,47.2,98.1,45.6,100.1,45.6z M97.7,48.9h4.7c0-1.1-0.7-2.4-2.3-2.4
			C98.5,46.5,97.8,47.8,97.7,48.9z"/>
		<path d="M105.2,51.1c0.5,0.5,1.4,1,2.3,1c1.1,0,1.7-0.5,1.7-1.2c0-0.8-0.9-1-1.8-1.3c-1.2-0.3-2.6-0.6-2.6-2.1c0-1.1,1-2,2.6-2
			c1.2,0,2.1,0.5,2.6,1l-0.5,0.8c-0.4-0.5-1.2-0.9-2.1-0.9c-1,0-1.6,0.4-1.6,1.1c0,0.7,0.8,0.9,1.7,1.1c1.2,0.3,2.7,0.6,2.7,2.2
			c0,1.2-1,2.1-2.8,2.1c-1.2,0-2.1-0.3-2.9-1.1L105.2,51.1z"/>
		<path d="M112.1,51.1c0.5,0.5,1.4,1,2.3,1c1.1,0,1.7-0.5,1.7-1.2c0-0.8-0.9-1-1.8-1.3c-1.2-0.3-2.6-0.6-2.6-2.1c0-1.1,1-2,2.6-2
			c1.2,0,2.1,0.5,2.6,1l-0.5,0.8c-0.4-0.5-1.2-0.9-2.1-0.9c-1,0-1.6,0.4-1.6,1.1c0,0.7,0.8,0.9,1.7,1.1c1.2,0.3,2.7,0.6,2.7,2.2
			c0,1.2-1,2.1-2.8,2.1c-1.2,0-2.1-0.3-2.9-1.1L112.1,51.1z"/>
	</g>
	<rect x="116.5" y="4.2" class="st4" width="16.8" height="16.8"/>
	<rect y="25.9" class="st4" width="16.8" height="16.8"/>
	<rect x="0.1" y="53.4" class="st4" width="16.8" height="16.8"/>
	<rect x="0" y="-7.8" class="st4" width="16.8" height="16.8"/>
</g>
<g id="ddlp9Z.tif" class="st5">
	
		<image style="display:inline;overflow:visible;" width="452" height="152" id="Layer_0_00000152251803087567482960000012813959118918799018_" xlink:href="78C17DCB9D8F1590.png"  transform="matrix(0.4317 0 0 0.4317 -15.7787 -18.7637)">
	</image>
</g>
</svg>
